<svg width="45" height="45" viewBox="0 0 45 45" fill="none" xmlns="http://www.w3.org/2000/svg">
<circle cx="22.5" cy="22.5" r="22.5" fill="#eb192e"/>
<path d="M22 12C16.48 12 12 16.48 12 22C12 27.52 16.48 32 22 32C27.52 32 32 27.52 32 22C32 16.48 27.52 12 22 12ZM23.41 28.09V30H20.74V28.07C19.03 27.71 17.58 26.61 17.47 24.67H19.43C19.53 25.72 20.25 26.54 22.08 26.54C24.04 26.54 24.48 25.56 24.48 24.95C24.48 24.12 24.04 23.34 21.81 22.81C19.33 22.21 17.63 21.19 17.63 19.14C17.63 17.42 19.02 16.3 20.74 15.93V14H23.41V15.95C25.27 16.4 26.2 17.81 26.26 19.34H24.3C24.25 18.23 23.66 17.47 22.08 17.47C20.58 17.47 19.68 18.15 19.68 19.11C19.68 19.95 20.33 20.5 22.35 21.02C24.37 21.54 26.53 22.41 26.53 24.93C26.52 26.76 25.15 27.76 23.41 28.09Z" fill="#0C1A49"/>
</svg>
