<svg width="45" height="45" viewBox="0 0 45 45" fill="none" xmlns="http://www.w3.org/2000/svg">
<circle cx="22.5" cy="22.5" r="22.5" fill="#00C6FF"/>
<g clip-path="url(#clip0_130_193)">
<path d="M22 12C16.48 12 12 16.48 12 22C12 27.52 16.48 32 22 32C27.52 32 32 27.52 32 22C32 16.48 27.52 12 22 12ZM18.46 24.45L17.1 23.83C17.38 23.22 17.51 22.59 17.5 21.97C17.49 21.34 17.36 20.73 17.1 20.17L18.46 19.54C18.81 20.29 18.99 21.1 19 21.94C19.01 22.8 18.83 23.64 18.46 24.45ZM21.53 26.01L20.23 25.27C20.75 24.35 21.01 23.29 21.01 22.12C21.01 20.93 20.74 19.79 20.21 18.72L21.55 18.05C22.19 19.33 22.51 20.7 22.51 22.12C22.51 23.55 22.18 24.86 21.53 26.01ZM24.67 27.33L23.32 26.67C24.1 25.07 24.5 23.49 24.5 21.98C24.5 20.47 24.1 18.91 23.32 17.34L24.66 16.67C25.56 18.45 26 20.23 26 21.98C26 23.72 25.56 25.52 24.67 27.33Z" fill="#0C1A49"/>
</g>
<defs>
<clipPath id="clip0_130_193">
<rect width="24" height="24" fill="white" transform="translate(10 10)"/>
</clipPath>
</defs>
</svg>
